<svg width="128" height="128" viewBox="0 0 128 128" fill="none" xmlns="http://www.w3.org/2000/svg">
<circle cx="63.9978" cy="64.7983" r="57.7983" fill="#184680"/>
<mask id="mask0_28_2" style="mask-type:alpha" maskUnits="userSpaceOnUse" x="6" y="11" width="114" height="115">
<path fill-rule="evenodd" clip-rule="evenodd" d="M63.3373 75.8557C49.3768 86.2515 29.5375 85.1128 16.8648 72.44C2.94111 58.5165 2.94111 35.9416 16.8648 22.0181C30.7886 8.09432 53.3633 8.09432 67.287 22.0181C80.1556 34.8867 81.1305 55.145 70.2121 69.1335L79.6693 78.5907C81.0941 77.9806 82.8034 78.2331 83.9973 79.36L118.392 111.817C120.035 113.367 120.072 115.967 118.476 117.563L111.844 124.195C110.247 125.792 107.647 125.754 106.097 124.112L73.6403 89.7172C72.5136 88.5231 72.2613 86.814 72.8712 85.3892L63.3373 75.8557ZM59.922 65.075C50.0657 74.9311 34.0861 74.9311 24.2299 65.075C14.5148 55.3598 14.3771 39.693 23.8148 29.8077C23.9517 29.6645 24.089 29.5239 24.2299 29.3831C34.0861 19.527 50.0657 19.527 59.922 29.3831C61.1539 30.615 62.2317 31.9428 63.1558 33.3422C69.6237 43.1384 68.5459 56.4508 59.922 65.075Z" fill="#0C2B42"/>
</mask>
<g mask="url(#mask0_28_2)">
<circle cx="63.9978" cy="64.7983" r="57.7983" fill="#0C2B42"/>
</g>
<rect x="69.0494" y="62.8175" width="18.4278" height="9.6145" transform="rotate(45 69.0494 62.8175)" fill="#CECFD2"/>
<rect x="69.0494" y="62.8175" width="4.80725" height="9.6145" transform="rotate(45 69.0494 62.8175)" fill="#A6A9AD"/>
<path d="M78.7615 74.6339C80.294 73.1014 82.7674 73.0656 84.3437 74.553L118.738 107.01C120.381 108.56 120.418 111.16 118.822 112.756L112.19 119.388C110.593 120.985 107.993 120.947 106.443 119.305L73.9865 84.9102C72.499 83.3339 72.5349 80.8605 74.0674 79.328L78.7615 74.6339Z" fill="#F58220"/>
<path fill-rule="evenodd" clip-rule="evenodd" d="M84.3437 74.553C82.7674 73.0656 80.294 73.1014 78.7615 74.6339L74.0674 79.3281C74.0244 79.3711 73.9825 79.4149 73.9419 79.4593C75.484 78.0491 77.8685 78.0587 79.3997 79.5107L111.387 109.842C113.023 111.393 113.058 113.988 111.464 115.582L107.147 119.898C108.699 120.926 110.816 120.762 112.19 119.388L118.822 112.756C120.418 111.16 120.381 108.56 118.738 107.01L84.3437 74.553Z" fill="#EBA73A"/>
<path fill-rule="evenodd" clip-rule="evenodd" d="M17.211 67.6331C31.1347 81.5567 53.7094 81.5567 67.6331 67.6331C81.5567 53.7094 81.5567 31.1347 67.6331 17.211C53.7094 3.28736 31.1347 3.28736 17.211 17.211C3.28737 31.1347 3.28737 53.7094 17.211 67.6331ZM24.576 60.2681C34.4321 70.1241 50.412 70.1241 60.2681 60.2681C70.1241 50.412 70.1241 34.4321 60.2681 24.576C50.412 14.72 34.4321 14.72 24.5761 24.576C14.72 34.4321 14.72 50.412 24.576 60.2681Z" fill="#DDDEE1"/>
<path fill-rule="evenodd" clip-rule="evenodd" d="M23.7262 60.5513C34.0517 70.8767 50.7925 70.8767 61.1179 60.5513C71.4433 50.2259 71.4433 33.4851 61.1179 23.1597C50.7925 12.8343 34.0517 12.8343 23.7262 23.1597C13.4008 33.4851 13.4008 50.2259 23.7262 60.5513ZM24.5761 60.268C34.4321 70.1241 50.412 70.1241 60.2681 60.268C70.1241 50.412 70.1241 34.4321 60.2681 24.576C50.412 14.72 34.4321 14.72 24.5761 24.576C14.72 34.4321 14.72 50.412 24.5761 60.268Z" fill="#CECFD2"/>
<path d="M23.7262 62.8175C34.0517 73.1429 50.7925 73.1429 61.1179 62.8175C71.4433 52.4921 71.4433 35.7513 61.1179 25.4259C60.9742 25.2822 60.8293 25.1405 60.6832 25.0009C70.1221 34.8861 69.9838 50.5524 60.2681 60.2681C50.412 70.1241 34.4321 70.1241 24.5761 60.2681C14.8603 50.5524 14.722 34.8861 24.1609 25.0009C24.0148 25.1405 23.8699 25.2822 23.7262 25.4259C13.4008 35.7513 13.4008 52.4921 23.7262 62.8175Z" fill="#F9F9F9"/>
<circle opacity="0.5" cx="42.4221" cy="42.4221" r="25.2381" transform="rotate(45 42.4221 42.4221)" fill="#EEF5FE"/>
<path d="M58.0019 26.8422C58.8172 27.6575 57.7714 28.875 56.6864 28.4852C48.9081 25.6905 39.8723 27.409 33.6407 33.6407C27.409 39.8723 25.6905 48.9081 28.4852 56.6863C28.8751 57.7714 27.6575 58.8171 26.8422 58.0019C18.2377 49.3974 18.2377 35.4467 26.8422 26.8422C35.4467 18.2377 49.3974 18.2377 58.0019 26.8422Z" fill="#F9F9F9"/>
</svg>
